<?xml version="1.0" encoding="UTF-8"?><svg id="Layer_1" xmlns="http://www.w3.org/2000/svg" viewBox="0 0 116.33 87.99"><defs><style>.cls-1{fill:#24a68d;}.cls-1,.cls-2,.cls-3{stroke-width:0px;}.cls-2{fill:#091c24;}.cls-3{fill:#20a589;}</style></defs><polygon class="cls-3" points="76.82 25.21 78.59 15.41 69.21 18.07 71.35 20.16 53.83 39.34 46.93 31.96 44.09 34.91 53.78 45.44 74.48 23.02 76.82 25.21"/><path class="cls-3" d="m46.01,42.27h-1.05c-.16,0-.31,0-.46,0-4.54-.22-8.4-3.16-8.4-7.25,0-3.55,3.45-6.29,7.14-7.16.7-.16,1.33,0,2.09,0,.58,0,1.56.3,2.09.49,3.86,1.36,4.35,2.37,6.1,5.53l2.19-2.71c-1.72-3.08-4.99-5.75-8.18-6.36,1.42-2.52,3.44-5.73,7.51-5.68,4.69.06,5.9,1.34,7.45,3.34.49.64,1.17,1.7,1.3,2.5l2.54-2.91c-1.98-3.8-6.04-6.63-11.04-6.63-5.47,0-9.54,4.52-11.21,8.91-6.17.67-11.6,6.05-11.6,10.28,0,6,5.36,10.9,12.02,11.11.16,0,.3,0,.46,0h5.48l-3.13-3.46h-1.3Z"/><path class="cls-3" d="m73.37,27.85l-2.54,2.71c1.88,1.41,4.1,2.57,3.7,6.05-.57,4.94-3.7,5.17-7.98,5.6-.32.03-.65.05-.98.05h-5.27l-2.75,3.46h8.02c.33,0,.66,0,.98-.04,6.62.04,11.52-3.63,11.52-9.07,0-3.52-1.84-6.72-4.71-8.76Z"/><path class="cls-2" d="m19.97,64.98v-14.37h3.89l3.06,5.26c.88,1.51,1.75,3.3,2.41,4.92h.07c-.22-1.9-.28-3.84-.28-5.99v-4.2h3.06v14.37h-3.5l-3.15-5.54c-.88-1.53-1.84-3.39-2.56-5.07l-.07.02c.09,1.9.13,3.92.13,6.27v4.33h-3.06Z"/><path class="cls-2" d="m45.03,61.64c0,1.36.04,2.47.09,3.35h-2.89l-.15-1.47h-.07c-.42.64-1.42,1.7-3.35,1.7-2.17,0-3.76-1.32-3.76-4.54v-6.12h3.35v5.61c0,1.51.5,2.43,1.66,2.43.92,0,1.44-.62,1.66-1.13.09-.19.11-.45.11-.7v-6.2h3.35v7.08Z"/><path class="cls-2" d="m47.61,64.98c.04-.68.09-1.94.09-3.11v-12.02h3.32v5.95h.04c.63-.9,1.75-1.47,3.24-1.47,2.56,0,4.44,2.07,4.42,5.26,0,3.75-2.45,5.63-4.9,5.63-1.25,0-2.45-.45-3.21-1.68h-.04l-.13,1.45h-2.82Zm3.41-4.43c0,.21.02.4.07.57.22.87.98,1.53,1.95,1.53,1.42,0,2.3-1.07,2.3-2.94,0-1.62-.74-2.9-2.3-2.9-.9,0-1.73.66-1.95,1.6-.04.19-.07.38-.07.6v1.53Z"/><path class="cls-2" d="m63.4,60.8c.11,1.34,1.47,1.98,3.02,1.98,1.14,0,2.06-.15,2.95-.43l.44,2.2c-1.09.43-2.43.64-3.87.64-3.63,0-5.71-2.05-5.71-5.31,0-2.64,1.68-5.56,5.4-5.56,3.46,0,4.77,2.62,4.77,5.2,0,.55-.07,1.04-.11,1.28h-6.89Zm3.91-2.22c0-.79-.35-2.11-1.88-2.11-1.4,0-1.97,1.24-2.06,2.11h3.94Z"/><path class="cls-1" d="m72.5,50.81c1.03-.17,2.47-.3,4.51-.3s3.52.38,4.51,1.15c.94.72,1.57,1.92,1.57,3.32s-.48,2.6-1.36,3.41c-1.14,1.04-2.82,1.51-4.79,1.51-.44,0-.83-.02-1.14-.06v5.14h-3.3v-14.17Zm3.3,6.52c.28.06.63.09,1.12.09,1.77,0,2.87-.87,2.87-2.34,0-1.32-.94-2.11-2.6-2.11-.68,0-1.14.06-1.38.13v4.24Z"/><path class="cls-1" d="m88.18,64.98v-5.88l-4.66-8.48h3.81l1.51,3.45c.46,1.04.77,1.81,1.14,2.75h.04c.33-.9.68-1.73,1.12-2.75l1.49-3.45h3.74l-4.86,8.38v5.99h-3.32Z"/><path class="cls-2" d="m23.33,70.9h-1.76v.89h1.97v.69h-3.05v-3.74h2.95v.69h-1.87v.78h1.76v.69Z"/><path class="cls-2" d="m24.27,68.79c.35-.04.87-.08,1.44-.08.71,0,1.21.08,1.55.29.28.18.44.44.44.78,0,.48-.43.8-.84.92v.02c.33.11.52.35.64.7.15.42.3.91.39,1.05h-1.11c-.08-.11-.19-.41-.33-.87-.13-.47-.33-.59-.77-.6h-.33v1.47h-1.07v-3.69Zm1.07,1.61h.43c.54,0,.86-.21.86-.54,0-.34-.3-.52-.8-.52-.26,0-.41.02-.49.03v1.03Z"/><path class="cls-2" d="m28.48,68.79c.33-.04.8-.08,1.46-.08s1.14.1,1.46.3c.31.19.51.5.51.86s-.16.68-.44.89c-.37.27-.92.39-1.55.39-.14,0-.27,0-.37-.02v1.34h-1.07v-3.69Zm1.07,1.7c.09.02.21.02.36.02.58,0,.93-.23.93-.61,0-.34-.31-.55-.84-.55-.22,0-.37.02-.45.03v1.1Z"/><path class="cls-2" d="m38.84,68.79c.32-.04.78-.08,1.41-.08s1.1.1,1.41.3c.29.19.49.5.49.86s-.15.68-.43.89c-.36.27-.88.39-1.5.39-.14,0-.26,0-.36-.02v1.34h-1.04v-3.69Zm1.04,1.7c.09.02.2.02.35.02.56,0,.9-.23.9-.61,0-.34-.29-.55-.82-.55-.21,0-.36.02-.43.03v1.1Z"/><path class="cls-2" d="m42.82,68.79c.38-.05.89-.08,1.41-.08.88,0,1.45.13,1.89.4.48.29.78.75.78,1.41,0,.72-.32,1.21-.77,1.51-.49.33-1.23.48-2.13.48-.54,0-.93-.03-1.19-.06v-3.67Zm1.05,3.05c.09.02.23.02.36.02.95,0,1.56-.42,1.56-1.31,0-.78-.56-1.19-1.45-1.19-.23,0-.38.02-.47.03v2.44Z"/><path class="cls-2" d="m48.64,72.48l-1.48-3.74h1.15l.56,1.58c.16.44.3.87.41,1.34h.02c.12-.45.26-.89.42-1.32l.59-1.6h1.11l-1.56,3.74h-1.22Z"/><path class="cls-2" d="m58.56,68.83c.32-.04.78-.08,1.41-.08s1.1.1,1.41.3c.29.19.49.5.49.86s-.15.68-.43.89c-.36.27-.89.39-1.5.39-.14,0-.26,0-.36-.02v1.34h-1.04v-3.69Zm1.04,1.7c.09.02.2.02.35.02.56,0,.9-.23.9-.61,0-.34-.29-.55-.82-.55-.21,0-.36.02-.43.03v1.1Z"/><path class="cls-2" d="m63.22,71.55l-.33.96h-1.08l1.41-3.74h1.37l1.43,3.74h-1.13l-.36-.96h-1.32Zm1.17-.63l-.29-.79c-.08-.22-.16-.5-.23-.72h-.01c-.07.22-.14.5-.21.72l-.27.79h1.02Z"/><path class="cls-2" d="m66.64,68.83c.34-.04.84-.08,1.39-.08.69,0,1.17.08,1.5.29.27.18.43.44.43.78,0,.48-.42.8-.82.92v.02c.32.11.5.35.62.7.14.42.29.91.38,1.05h-1.07c-.08-.11-.18-.41-.32-.87-.12-.47-.32-.59-.75-.6h-.32v1.47h-1.04v-3.69Zm1.04,1.61h.41c.52,0,.83-.21.83-.54,0-.34-.29-.52-.77-.52-.25,0-.4.02-.47.03v1.03Z"/><path class="cls-2" d="m71.85,71.55l-.33.96h-1.08l1.41-3.74h1.37l1.43,3.74h-1.12l-.36-.96h-1.32Zm1.17-.63l-.29-.79c-.08-.22-.16-.5-.23-.72h-.01c-.07.22-.14.5-.21.72l-.27.79h1.02Z"/><path class="cls-2" d="m78.96,72.34c-.32.09-.93.21-1.54.21-.84,0-1.45-.17-1.88-.5-.43-.32-.66-.81-.65-1.36,0-1.24,1.13-1.95,2.64-1.95.6,0,1.06.09,1.28.18l-.22.68c-.25-.09-.57-.16-1.08-.16-.87,0-1.53.4-1.53,1.21s.6,1.23,1.45,1.23c.24,0,.43-.02.51-.06v-.78h-.71v-.66h1.72v1.97Z"/><path class="cls-2" d="m80.82,68.78v2.15c0,.64.3.97.84.97s.85-.31.85-.97v-2.15h1.04v2.1c0,1.15-.72,1.7-1.93,1.7s-1.85-.52-1.85-1.71v-2.08h1.05Z"/><path class="cls-2" d="m85.33,71.55l-.33.96h-1.08l1.41-3.74h1.37l1.43,3.74h-1.12l-.36-.96h-1.32Zm1.17-.63l-.29-.79c-.08-.22-.16-.5-.23-.72h-.01c-.07.22-.14.5-.21.72l-.27.79h1.02Z"/><path class="cls-2" d="m89.17,72.51v-1.53l-1.46-2.21h1.19l.47.9c.14.27.24.47.36.72h.01c.1-.23.21-.45.35-.72l.47-.9h1.17l-1.52,2.18v1.56h-1.04Z"/><circle class="cls-2" cx="35.42" cy="70.5" r=".76"/><circle class="cls-2" cx="54.79" cy="70.5" r=".76"/></svg>