<?xml version="1.0" encoding="UTF-8"?><svg id="Layer_1" xmlns="http://www.w3.org/2000/svg" viewBox="0 0 193.13 87.99"><defs><style>.cls-1{fill:#24a68d;}.cls-1,.cls-2,.cls-3{stroke-width:0px;}.cls-2{fill:#091c24;}.cls-3{fill:#20a589;}</style></defs><polygon class="cls-3" points="71.76 37.16 74.02 24.65 62.05 28.04 64.78 30.7 42.42 55.19 33.61 45.77 29.98 49.53 42.35 62.97 68.77 34.36 71.76 37.16"/><path class="cls-3" d="m32.44,58.93h-1.34c-.2,0-.4,0-.58-.01-5.79-.28-10.72-4.03-10.72-9.25,0-4.53,4.4-8.03,9.11-9.14.89-.21,1.7,0,2.66,0,.74,0,2,.39,2.66.62,4.92,1.73,5.55,3.03,7.78,7.05l2.79-3.46c-2.2-3.93-6.37-7.34-10.45-8.12,1.81-3.22,4.39-7.32,9.58-7.25,5.99.08,7.54,1.71,9.51,4.26.63.81,1.49,2.17,1.66,3.19l3.25-3.72c-2.53-4.86-7.7-8.46-14.09-8.46-6.98,0-12.18,5.77-14.3,11.38-7.87.85-14.8,7.73-14.8,13.12,0,7.66,6.84,13.91,15.34,14.19.2.01.38.01.58.01h6.99l-3.99-4.41h-1.66Z"/><path class="cls-3" d="m67.35,40.53l-3.24,3.46c2.4,1.79,5.24,3.28,4.72,7.72-.73,6.3-4.73,6.6-10.18,7.15-.41.04-.83.07-1.25.07h-6.72l-3.51,4.41h10.23c.42,0,.84-.01,1.25-.06,8.45.06,14.71-4.64,14.71-11.57,0-4.49-2.34-8.58-6.01-11.18Z"/><path class="cls-2" d="m80.46,53.65v-18.34h4.97l3.91,6.72c1.12,1.93,2.23,4.22,3.07,6.28h.08c-.28-2.42-.36-4.9-.36-7.64v-5.36h3.91v18.34h-4.47l-4.02-7.07c-1.12-1.96-2.35-4.32-3.27-6.47l-.08.03c.11,2.42.17,5.01.17,8v5.52h-3.91Z"/><path class="cls-2" d="m112.44,49.38c0,1.74.06,3.16.11,4.27h-3.68l-.2-1.88h-.08c-.53.82-1.81,2.18-4.27,2.18-2.76,0-4.8-1.69-4.8-5.79v-7.81h4.27v7.15c0,1.93.64,3.1,2.12,3.1,1.17,0,1.84-.79,2.12-1.44.11-.25.14-.57.14-.9v-7.92h4.27v9.03Z"/><path class="cls-2" d="m115.74,53.65c.06-.87.11-2.48.11-3.97v-15.34h4.24v7.59h.06c.81-1.14,2.23-1.88,4.13-1.88,3.27,0,5.67,2.64,5.64,6.72,0,4.79-3.13,7.18-6.25,7.18-1.59,0-3.13-.57-4.1-2.15h-.06l-.17,1.85h-3.6Zm4.35-5.66c0,.27.03.52.08.73.28,1.12,1.26,1.96,2.48,1.96,1.81,0,2.93-1.36,2.93-3.75,0-2.07-.95-3.7-2.93-3.7-1.14,0-2.2.84-2.48,2.04-.06.25-.08.49-.08.76v1.96Z"/><path class="cls-2" d="m135.89,48.32c.14,1.71,1.87,2.53,3.85,2.53,1.45,0,2.62-.19,3.77-.54l.56,2.8c-1.4.54-3.1.82-4.94.82-4.63,0-7.29-2.61-7.29-6.77,0-3.37,2.15-7.1,6.9-7.1,4.41,0,6.09,3.35,6.09,6.64,0,.71-.08,1.33-.14,1.63h-8.79Zm5-2.83c0-1.01-.45-2.69-2.4-2.69-1.79,0-2.51,1.58-2.62,2.69h5.02Z"/><path class="cls-1" d="m147.5,35.56c1.31-.22,3.15-.38,5.75-.38s4.49.49,5.75,1.47c1.2.93,2.01,2.45,2.01,4.24s-.61,3.32-1.73,4.35c-1.45,1.33-3.6,1.93-6.11,1.93-.56,0-1.06-.03-1.45-.08v6.56h-4.22v-18.09Zm4.22,8.32c.36.08.81.11,1.42.11,2.26,0,3.66-1.12,3.66-2.99,0-1.69-1.2-2.69-3.32-2.69-.86,0-1.45.08-1.76.16v5.41Z"/><path class="cls-1" d="m167.51,53.65v-7.51l-5.95-10.83h4.86l1.93,4.41c.59,1.33.98,2.31,1.45,3.51h.06c.42-1.14.86-2.2,1.42-3.51l1.9-4.41h4.77l-6.2,10.69v7.64h-4.24Z"/><path class="cls-2" d="m84.74,61.2h-2.25v1.13h2.51v.88h-3.9v-4.77h3.77v.88h-2.38v.99h2.25v.88Z"/><path class="cls-2" d="m85.94,58.51c.44-.06,1.11-.1,1.84-.1.91,0,1.54.11,1.98.38.36.23.56.56.56,1,0,.61-.55,1.03-1.08,1.17v.02c.43.13.66.45.82.89.19.54.38,1.16.5,1.34h-1.41c-.1-.13-.24-.52-.43-1.11-.16-.59-.43-.76-.99-.76h-.42v1.87h-1.37v-4.71Zm1.37,2.05h.54c.69,0,1.1-.27,1.1-.69,0-.44-.38-.66-1.01-.67-.34,0-.53.02-.63.04v1.32Z"/><path class="cls-2" d="m91.31,58.51c.43-.06,1.02-.1,1.87-.1s1.46.13,1.87.38c.39.24.65.64.65,1.1s-.2.86-.56,1.13c-.47.35-1.17.5-1.98.5-.18,0-.34,0-.47-.02v1.71h-1.37v-4.71Zm1.37,2.16c.12.02.26.03.46.03.73,0,1.19-.29,1.19-.78,0-.44-.39-.7-1.08-.7-.28,0-.47.02-.57.04v1.41Z"/><path class="cls-2" d="m104.53,58.51c.41-.06.99-.1,1.8-.1s1.41.13,1.8.38c.38.24.63.64.63,1.1s-.19.86-.54,1.13c-.45.35-1.13.5-1.92.5-.18,0-.33,0-.46-.02v1.71h-1.32v-4.71Zm1.32,2.16c.11.02.25.03.45.03.71,0,1.15-.29,1.15-.78,0-.44-.38-.7-1.04-.7-.27,0-.46.02-.55.04v1.41Z"/><path class="cls-2" d="m109.62,58.51c.49-.06,1.13-.1,1.8-.1,1.12,0,1.85.16,2.42.51.61.37,1,.96,1,1.8,0,.91-.41,1.54-.98,1.93-.62.42-1.57.62-2.72.62-.69,0-1.18-.04-1.52-.07v-4.68Zm1.34,3.89c.11.02.3.02.46.02,1.21,0,2-.53,2-1.67,0-.99-.71-1.51-1.86-1.51-.3,0-.49.02-.6.04v3.12Z"/><path class="cls-2" d="m117.05,63.21l-1.89-4.77h1.46l.72,2.02c.2.57.39,1.11.53,1.71h.03c.15-.57.33-1.14.53-1.68l.75-2.04h1.42l-1.99,4.77h-1.56Z"/><path class="cls-2" d="m129.71,58.56c.41-.06.99-.1,1.8-.1s1.41.13,1.8.38c.38.24.63.64.63,1.1s-.19.86-.54,1.13c-.46.35-1.13.5-1.92.5-.18,0-.33,0-.46-.02v1.71h-1.32v-4.71Zm1.32,2.16c.11.02.25.03.45.03.71,0,1.15-.29,1.15-.78,0-.44-.38-.7-1.04-.7-.27,0-.45.02-.55.04v1.41Z"/><path class="cls-2" d="m135.65,62.04l-.42,1.22h-1.38l1.8-4.77h1.75l1.83,4.77h-1.44l-.46-1.22h-1.69Zm1.5-.81l-.37-1.01c-.1-.28-.21-.64-.3-.92h-.02c-.09.28-.18.64-.27.92l-.35,1.01h1.31Z"/><path class="cls-2" d="m140.02,58.56c.43-.06,1.07-.1,1.78-.1.88,0,1.49.11,1.91.38.35.23.54.56.54,1,0,.61-.53,1.03-1.04,1.17v.02c.41.13.64.45.79.89.18.54.37,1.16.48,1.34h-1.37c-.1-.13-.24-.52-.41-1.11-.16-.59-.41-.76-.95-.76h-.4v1.87h-1.32v-4.71Zm1.32,2.05h.53c.67,0,1.06-.27,1.06-.69,0-.44-.37-.66-.98-.67-.32,0-.51.02-.6.04v1.32Z"/><path class="cls-2" d="m146.67,62.04l-.42,1.22h-1.38l1.8-4.77h1.75l1.83,4.77h-1.44l-.46-1.22h-1.69Zm1.5-.81l-.37-1.01c-.1-.28-.21-.64-.3-.92h-.02c-.09.28-.17.64-.27.92l-.35,1.01h1.31Z"/><path class="cls-2" d="m155.75,63.04c-.41.11-1.19.27-1.97.27-1.08,0-1.86-.22-2.4-.64-.54-.41-.84-1.03-.83-1.73,0-1.58,1.44-2.49,3.37-2.49.76,0,1.35.12,1.64.23l-.28.86c-.32-.11-.73-.21-1.38-.21-1.11,0-1.95.51-1.95,1.54s.76,1.56,1.86,1.56c.31,0,.55-.03.66-.07v-1h-.91v-.84h2.2v2.51Z"/><path class="cls-2" d="m158.12,58.49v2.74c0,.82.39,1.24,1.07,1.24s1.09-.4,1.09-1.24v-2.74h1.33v2.67c0,1.47-.92,2.17-2.46,2.17s-2.36-.67-2.36-2.19v-2.66h1.34Z"/><path class="cls-2" d="m163.87,62.04l-.42,1.22h-1.38l1.8-4.77h1.75l1.83,4.77h-1.44l-.46-1.22h-1.69Zm1.5-.81l-.37-1.01c-.1-.28-.21-.64-.3-.92h-.02c-.09.28-.17.64-.27.92l-.35,1.01h1.31Z"/><path class="cls-2" d="m168.78,63.26v-1.95l-1.87-2.82h1.52l.6,1.15c.18.35.31.6.46.91h.02c.13-.3.27-.57.45-.91l.6-1.15h1.5l-1.94,2.78v1.99h-1.33Z"/><circle class="cls-2" cx="100.17" cy="60.69" r=".96"/><circle class="cls-2" cx="124.89" cy="60.69" r=".96"/></svg>